<svg width="900" height="900" viewBox="0 0 900 900" fill="none" xmlns="http://www.w3.org/2000/svg">
<g clip-path="url(#clip0_109_13)">
<path fill-rule="evenodd" clip-rule="evenodd" d="M760.494 92.9898L759.783 715.481L731.07 715.948L729.77 139.697L330.423 276.791V246.166L760.494 92.9812V92.9898Z" fill="#FA93B2" stroke="#FA93B2" stroke-width="1.33333"/>
<path fill-rule="evenodd" clip-rule="evenodd" d="M330.423 276.799V521.902H372.886L374.134 260.423L330.423 276.799Z" fill="#FA93B2" stroke="#FA93B2" stroke-width="1.33333"/>
<path fill-rule="evenodd" clip-rule="evenodd" d="M366.497 501.939C376.454 519.09 373.623 541.398 358.627 563.957C343.63 586.516 317.697 607.478 286.531 622.23C255.366 636.983 221.522 644.318 192.443 642.623C163.365 640.927 141.436 630.339 131.478 613.189C121.521 596.038 124.352 573.73 139.349 551.171C154.345 528.612 180.279 507.65 211.444 492.898C242.609 478.145 276.454 470.81 305.532 472.505C334.61 474.201 356.54 484.789 366.497 501.939V501.939Z" fill="#FA93B2" stroke="#FA93B2" stroke-width="1.83176"/>
<path d="M177.15 615.973C167.819 614.872 160.471 612.062 155.58 607.722C150.69 603.382 148.364 597.61 148.754 590.776C149.143 583.941 152.238 576.197 157.84 568.039C163.443 559.882 171.428 551.494 181.283 543.413C191.138 535.331 202.644 527.737 215.061 521.118C227.478 514.498 240.532 509.001 253.383 504.978C266.233 500.956 278.596 498.497 289.676 497.761C300.757 497.026 310.309 498.028 317.719 500.705" stroke="#FA93B2" stroke-width="2.76605"/>
<path fill-rule="evenodd" clip-rule="evenodd" d="M178.959 619.525C180.484 609.758 186.021 598.577 195.182 586.77C204.343 574.963 216.903 562.819 231.977 551.192C247.052 539.566 264.273 528.742 282.427 519.482C300.58 510.223 319.224 502.754 337.043 497.603" fill="#FA93B2"/>
<path d="M178.959 619.525C180.484 609.758 186.021 598.577 195.182 586.77C204.343 574.963 216.903 562.819 231.977 551.192C247.052 539.566 264.273 528.742 282.427 519.482C300.58 510.223 319.224 502.754 337.043 497.603" stroke="#FA93B2" stroke-width="2.9921"/>
<path fill-rule="evenodd" clip-rule="evenodd" d="M369 349.299L733 260V283.995L369 411V349.299V349.299Z" fill="#FA93B2" stroke="#FA93B2" stroke-width="1.33333"/>
<path fill-rule="evenodd" clip-rule="evenodd" d="M752.715 680.296C763.131 700.098 760.169 725.856 744.482 751.904C728.795 777.952 701.667 802.155 669.066 819.19C636.465 836.225 601.062 844.695 570.644 842.738C540.227 840.781 517.287 828.557 506.871 808.755C496.455 788.953 499.417 763.194 515.104 737.147C530.791 711.099 557.919 686.895 590.52 669.861C623.121 652.826 658.524 644.355 688.942 646.312C719.359 648.269 742.299 660.493 752.715 680.296V680.296Z" fill="#FA93B2" stroke="#FA93B2" stroke-width="2.00975"/>
<path d="M556.654 813.991C546.892 812.72 539.206 809.475 534.091 804.464C528.975 799.453 526.543 792.788 526.95 784.896C527.357 777.005 530.596 768.062 536.457 758.643C542.317 749.225 550.671 739.538 560.98 730.207C571.29 720.876 583.326 712.107 596.316 704.464C609.306 696.821 622.961 690.473 636.404 685.828C649.847 681.183 662.779 678.345 674.37 677.495C685.961 676.645 695.953 677.803 703.704 680.894" stroke="#FA93B2" stroke-width="2.96322"/>
<path fill-rule="evenodd" clip-rule="evenodd" d="M558.549 818.059C560.143 806.781 565.936 793.87 575.519 780.237C585.102 766.603 598.241 752.58 614.01 739.155C629.779 725.73 647.794 713.231 666.784 702.539C685.774 691.848 705.277 683.223 723.917 677.275" fill="#FA93B2"/>
<path d="M558.549 818.059C560.143 806.781 565.936 793.87 575.519 780.237C585.102 766.603 598.241 752.58 614.01 739.155C629.779 725.73 647.794 713.231 666.784 702.539C685.774 691.848 705.277 683.223 723.917 677.275" stroke="#FA93B2" stroke-width="3.26635"/>
</g>
<defs>
<clipPath id="clip0_109_13">
<rect width="746" height="900" fill="white" transform="translate(77)"/>
</clipPath>
</defs>
</svg>
